<?xml version="1.0" encoding="iso-8859-1"?>
<!-- Generator: Adobe Illustrator 15.1.0, SVG Export Plug-In . SVG Version: 6.00 Build 0)  -->
<!DOCTYPE svg PUBLIC "-//W3C//DTD SVG 1.1//EN" "http://www.w3.org/Graphics/SVG/1.1/DTD/svg11.dtd">
<svg version="1.1" id="Layer_1" xmlns="http://www.w3.org/2000/svg" xmlns:xlink="http://www.w3.org/1999/xlink" x="0px" y="0px"
	 width="26.086px" height="28.289px" viewBox="0 0 26.086 28.289" style="enable-background:new 0 0 26.086 28.289;"
	 xml:space="preserve">
<g>
	<path style="fill:#35AA5D;" d="M13.043,20.746c4.656,0,8.816,2.27,11.342,5.842H1.701C4.228,23.016,8.389,20.746,13.043,20.746
		 M13.043,19.045c-5.065,0-9.825,2.453-12.731,6.561c-0.367,0.52-0.414,1.199-0.122,1.765c0.292,0.563,0.875,0.919,1.511,0.919
		h22.686c0.635,0,1.217-0.354,1.51-0.919c0.291-0.565,0.244-1.245-0.123-1.765C22.869,21.498,18.109,19.045,13.043,19.045
		L13.043,19.045z"/>
	<path style="fill:#35AA5D;" d="M9.217,12.188c0,1.135-0.919,2.055-2.055,2.055c-1.135,0-2.055-0.92-2.055-2.055
		s0.92-2.055,2.055-2.055C8.297,10.133,9.217,11.053,9.217,12.188z"/>
	<path style="fill:#35AA5D;" d="M16.87,2.055c0,1.135-0.92,2.055-2.056,2.055c-1.135,0-2.055-0.92-2.055-2.055
		C12.76,0.92,13.68,0,14.814,0C15.95,0,16.87,0.92,16.87,2.055z"/>
	<path style="fill:#35AA5D;" d="M20.979,15.234c0,1.135-0.918,2.055-2.055,2.055c-1.135,0-2.055-0.92-2.055-2.055
		c0-1.135,0.92-2.055,2.055-2.055C20.061,13.18,20.979,14.1,20.979,15.234z"/>
</g>
</svg>
