<?xml version="1.0" encoding="iso-8859-1"?>
<!-- Generator: Adobe Illustrator 15.1.0, SVG Export Plug-In . SVG Version: 6.00 Build 0)  -->
<!DOCTYPE svg PUBLIC "-//W3C//DTD SVG 1.1//EN" "http://www.w3.org/Graphics/SVG/1.1/DTD/svg11.dtd">
<svg version="1.1" id="Layer_1" xmlns="http://www.w3.org/2000/svg" xmlns:xlink="http://www.w3.org/1999/xlink" x="0px" y="0px"
	 width="13.157px" height="32.82px" viewBox="0 0 13.157 32.82" style="enable-background:new 0 0 13.157 32.82;"
	 xml:space="preserve">
<path style="fill:#F89E55;" d="M12.806,8.956C12.795,8.835,12.758,8.717,12.7,8.61c-0.832-1.506-3.584-2.076-5.82-2.122
	c0.759-2.02,2.101-4.496,3.24-4.748c0.477-0.105,0.774-0.575,0.67-1.05c-0.104-0.477-0.574-0.776-1.049-0.67
	c-1.83,0.403-3.224,2.836-4.035,4.677c-0.376-0.604-0.878-1.27-1.543-1.89C3.808,2.474,3.251,2.494,2.918,2.849
	C2.586,3.204,2.605,3.762,2.961,4.094c0.945,0.883,1.492,1.89,1.767,2.504C2.324,6.904,0.224,7.828,0.224,9.45
	C0.223,9.48,0.216,9.576,0.207,9.721C0.15,10.589,0,12.893,0,14.219C0,22.042,3.812,32.82,6.579,32.82
	c1.726-0.001,3.412-3.904,4.261-6.232c1.472-4.024,2.314-8.532,2.314-12.37C13.156,12.824,12.821,9.114,12.806,8.956z
	 M11.141,18.007c-0.033-0.004-0.062-0.02-0.096-0.02H8.252c-0.485,0-0.879,0.394-0.879,0.88c0,0.487,0.395,0.881,0.881,0.881h2.623
	c-1.026,5.733-3.31,10.434-4.298,11.242c-1.296-1.059-4.817-8.782-4.817-16.771c0-0.085,0.002-0.186,0.003-0.278h2.466
	c0.487,0,0.88-0.396,0.88-0.881c0-0.486-0.394-0.883-0.88-0.883H1.828c0.048-0.963,0.108-1.903,0.137-2.341
	c0.014-0.21,0.02-0.338,0.02-0.346c0.083-0.374,1.747-1.249,4.594-1.249c2.533,0,4.076,0.67,4.496,1.11
	c0.073,0.845,0.321,3.746,0.321,4.866C11.396,15.498,11.297,16.767,11.141,18.007z"/>
</svg>
