<?xml version="1.0" encoding="iso-8859-1"?>
<!-- Generator: Adobe Illustrator 15.1.0, SVG Export Plug-In . SVG Version: 6.00 Build 0)  -->
<!DOCTYPE svg PUBLIC "-//W3C//DTD SVG 1.1//EN" "http://www.w3.org/Graphics/SVG/1.1/DTD/svg11.dtd">
<svg version="1.1" id="Layer_1" xmlns="http://www.w3.org/2000/svg" xmlns:xlink="http://www.w3.org/1999/xlink" x="0px" y="0px"
	 width="19.757px" height="19.168px" viewBox="0 0 19.757 19.168" style="enable-background:new 0 0 19.757 19.168;"
	 xml:space="preserve">
<g>
	<path style="fill:#60A6BE;" d="M17.899,17.287c-0.772,0.572-1.688,0.875-2.649,0.875s-1.877-0.303-2.648-0.875
		c-0.947-0.703-2.071-1.074-3.249-1.074c-1.178,0-2.302,0.371-3.249,1.074c-0.772,0.572-1.689,0.875-2.649,0.875
		c-0.961,0-1.877-0.303-2.649-0.875c-0.224-0.166-0.538-0.119-0.704,0.104c-0.166,0.224-0.119,0.539,0.104,0.703
		c0.947,0.703,2.071,1.074,3.249,1.074c1.178,0,2.302-0.371,3.249-1.074c0.772-0.572,1.688-0.875,2.649-0.875
		c0.96,0,1.877,0.303,2.647,0.875c0.949,0.703,2.071,1.074,3.25,1.074c1.178,0,2.301-0.371,3.25-1.074
		c0.223-0.164,0.27-0.479,0.104-0.703C18.437,17.168,18.123,17.121,17.899,17.287z"/>
	<path style="fill:#60A6BE;" d="M17.899,14.551c-0.772,0.572-1.688,0.875-2.649,0.875s-1.877-0.303-2.648-0.875
		c-0.947-0.701-2.071-1.074-3.249-1.074c-1.178,0-2.302,0.373-3.249,1.074c-0.772,0.572-1.689,0.875-2.649,0.875
		c-0.961,0-1.877-0.303-2.649-0.875c-0.224-0.166-0.538-0.119-0.704,0.104c-0.166,0.225-0.119,0.538,0.104,0.704
		c0.947,0.701,2.071,1.074,3.249,1.074c1.178,0,2.302-0.371,3.249-1.074c0.772-0.573,1.688-0.877,2.649-0.877
		c0.96,0,1.877,0.304,2.647,0.877c0.949,0.701,2.071,1.074,3.25,1.074c1.178,0,2.301-0.371,3.25-1.074
		c0.223-0.166,0.27-0.479,0.104-0.704C18.437,14.434,18.123,14.385,17.899,14.551z"/>
	<path style="fill:#60A6BE;" d="M5.745,10.741c0.784,0,1.627-0.214,2.512-0.63c0.256,0.455,0.6,1.314,0.711,2.75
		c0.127-0.01,0.254-0.016,0.383-0.016c0.265,0,0.527,0.022,0.786,0.06c0.106-0.841,0.291-1.935,0.6-2.831
		c0.792,0.178,1.546,0.273,2.242,0.273c1.838,0,3.345-0.617,4.478-1.833c2.621-2.815,2.295-7.834,2.28-8.046
		C19.716,0.204,19.498,0,19.234,0c-0.003,0-0.005,0-0.008,0c-3.629,0.055-6.271,1.086-7.854,3.067
		C9.343,5.609,9.776,8.824,9.889,9.47c-0.132,0.344-0.248,0.714-0.345,1.093c-0.165-0.486-0.348-0.845-0.507-1.102
		c0.002-0.025,0.008-0.049,0.007-0.074C9.042,9.334,8.778,4.01,3.331,4.01c-0.748,0-1.568,0.104-2.439,0.308
		c-0.26,0.061-0.427,0.314-0.38,0.577C0.554,5.133,1.589,10.741,5.745,10.741z M10.791,7.746c0.037-1.159,0.316-2.736,1.375-4.058
		c1.316-1.642,3.529-2.539,6.582-2.667c0.012,1.275-0.141,4.78-2.026,6.807c-1.277,1.372-3.153,1.809-5.568,1.309
		c-0.1-0.021-0.198-0.041-0.303-0.064C10.812,8.786,10.772,8.315,10.791,7.746z M3.331,5.016c2.916,0,4.026,1.8,4.449,3.101
		c0.131,0.404,0.197,0.762,0.229,1C7.868,9.188,7.729,9.25,7.593,9.309c-0.66,0.281-1.28,0.425-1.848,0.425
		c-2.697,0-3.809-3.292-4.134-4.541C2.223,5.076,2.8,5.016,3.331,5.016z"/>
</g>
</svg>
