<?xml version="1.0" encoding="iso-8859-1"?>
<!-- Generator: Adobe Illustrator 15.1.0, SVG Export Plug-In . SVG Version: 6.00 Build 0)  -->
<!DOCTYPE svg PUBLIC "-//W3C//DTD SVG 1.1//EN" "http://www.w3.org/Graphics/SVG/1.1/DTD/svg11.dtd">
<svg version="1.1" id="Layer_1" xmlns="http://www.w3.org/2000/svg" xmlns:xlink="http://www.w3.org/1999/xlink" x="0px" y="0px"
	 width="19.406px" height="15.109px" viewBox="0 0 19.406 15.109" style="enable-background:new 0 0 19.406 15.109;"
	 xml:space="preserve">
<path style="fill:#83C779;" d="M12.574,10.43c1.852,0,3.37-0.622,4.512-1.85c2.644-2.838,2.315-7.896,2.301-8.109
	C19.367,0.205,19.146,0,18.88,0c-0.003,0-0.006,0-0.008,0c-3.658,0.056-6.321,1.095-7.916,3.091C8.91,5.653,9.346,8.893,9.46,9.545
	c-0.133,0.348-0.25,0.72-0.348,1.103C8.946,10.158,8.761,9.796,8.6,9.537c0.003-0.024,0.009-0.05,0.008-0.075
	C8.606,9.407,8.341,4.041,2.851,4.041c-0.754,0-1.582,0.105-2.459,0.312C0.13,4.414-0.039,4.669,0.008,4.934
	c0.043,0.24,1.087,5.892,5.275,5.892c0.001,0,0.001,0,0.001,0c0.79,0,1.64-0.215,2.532-0.633c0.318,0.565,0.775,1.756,0.752,3.901
	H4.423c-0.279,0-0.507,0.228-0.507,0.508c0,0.279,0.228,0.507,0.507,0.507h8.876c0.28,0,0.508-0.228,0.508-0.507
	c0-0.28-0.228-0.508-0.508-0.508H9.597c0.052-0.664,0.236-2.543,0.717-3.94C11.113,10.334,11.872,10.43,12.574,10.43z M11.755,3.717
	c1.327-1.654,3.558-2.558,6.634-2.688c0.012,1.286-0.142,4.819-2.044,6.862c-1.286,1.381-3.176,1.821-5.608,1.318
	c1.875-3.525,4.69-5.217,4.719-5.233c0.242-0.143,0.323-0.452,0.183-0.694c-0.143-0.242-0.452-0.324-0.694-0.182
	c-0.117,0.067-2.609,1.557-4.574,4.714C10.405,6.645,10.686,5.052,11.755,3.717z M4.438,7.64c0.015,0.005,1.398,0.457,2.708,1.741
	c-0.665,0.283-1.29,0.43-1.862,0.43c-2.719,0-3.839-3.318-4.167-4.577c0.617-0.118,1.198-0.178,1.734-0.178
	c2.938,0,4.057,1.813,4.482,3.126c-1.309-1.1-2.529-1.49-2.593-1.511C4.475,6.589,4.19,6.737,4.106,7.004
	C4.023,7.271,4.171,7.555,4.438,7.64z"/>
</svg>
