<?xml version="1.0" encoding="iso-8859-1"?>
<!-- Generator: Adobe Illustrator 15.1.0, SVG Export Plug-In . SVG Version: 6.00 Build 0)  -->
<!DOCTYPE svg PUBLIC "-//W3C//DTD SVG 1.1//EN" "http://www.w3.org/Graphics/SVG/1.1/DTD/svg11.dtd">
<svg version="1.1" id="Layer_1" xmlns="http://www.w3.org/2000/svg" xmlns:xlink="http://www.w3.org/1999/xlink" x="0px" y="0px"
	 width="18px" height="27.854px" viewBox="0 0 18 27.854" style="enable-background:new 0 0 18 27.854;" xml:space="preserve">
<g>
	<path style="fill:#F07F85;" d="M18,8.087c0-1.458-1.486-2.666-3.663-3.082c0.728-2.091,0.427-3.983-0.837-4.712
		C13.164,0.099,12.785,0,12.374,0C11.275,0,10.041,0.718,9,1.924C7.959,0.718,6.725,0,5.627,0C5.216,0,4.837,0.099,4.5,0.293
		C3.237,1.022,2.935,2.914,3.663,5.005C1.487,5.42,0,6.629,0,8.087s1.487,2.666,3.663,3.082c-0.728,2.092-0.426,3.982,0.837,4.713
		c0.337,0.194,0.716,0.293,1.127,0.293c0.812,0,1.698-0.395,2.526-1.087v11.974c0,0.438,0.354,0.792,0.792,0.792
		s0.793-0.354,0.792-0.792v-4.949c0.041-0.054,0.078-0.11,0.104-0.177c0.013-0.024,1.125-2.688,5.321-2.688
		c0.438,0,0.792-0.354,0.792-0.792c0-0.438-0.354-0.792-0.792-0.792c-2.702,0-4.398,0.935-5.426,1.861v-4.533
		c0.859,0.751,1.789,1.184,2.639,1.184c0.411,0,0.79-0.099,1.126-0.293c1.265-0.73,1.563-2.621,0.837-4.713
		C16.514,10.753,18,9.545,18,8.087z M13.152,9.722c-0.264,0.019-0.504,0.165-0.637,0.396c-0.133,0.229-0.142,0.51-0.022,0.748
		c0.856,1.727,0.8,3.306,0.215,3.644c-0.095,0.055-0.203,0.081-0.334,0.081c-0.638,0-1.759-0.653-2.714-2.088
		C9.514,12.281,9.266,12.148,9,12.148c-0.265,0-0.513,0.135-0.66,0.355c-0.954,1.434-2.075,2.088-2.713,2.088
		c-0.131,0-0.241-0.027-0.334-0.081c-0.585-0.338-0.641-1.918,0.215-3.644c0.118-0.237,0.109-0.52-0.024-0.748
		C5.351,9.888,5.113,9.74,4.848,9.723C2.925,9.6,1.585,8.763,1.585,8.087s1.341-1.514,3.263-1.636
		c0.265-0.018,0.503-0.165,0.636-0.396c0.132-0.229,0.141-0.511,0.023-0.749C4.652,3.583,4.708,2.003,5.293,1.666
		C5.386,1.61,5.496,1.585,5.627,1.585c0.638,0,1.759,0.651,2.713,2.088C8.487,3.894,8.735,4.027,9,4.027
		c0.266,0,0.514-0.133,0.66-0.355c0.953-1.437,2.076-2.088,2.714-2.088c0.131,0,0.239,0.025,0.334,0.081
		c0.585,0.338,0.642,1.917-0.215,3.643c-0.119,0.238-0.11,0.521,0.022,0.749c0.133,0.23,0.371,0.378,0.637,0.396
		c1.923,0.122,3.263,0.96,3.263,1.636S15.075,9.6,13.152,9.722z"/>
	<path style="fill:#F07F85;" d="M9,5.181c-1.603,0-2.906,1.303-2.906,2.906c0,1.602,1.303,2.906,2.906,2.906
		c1.604,0,2.906-1.306,2.906-2.906C11.906,6.484,10.602,5.181,9,5.181z M9,9.408c-0.728,0-1.321-0.594-1.321-1.32
		C7.679,7.36,8.271,6.767,9,6.767c0.729,0,1.32,0.592,1.32,1.32C10.32,8.815,9.729,9.408,9,9.408z"/>
</g>
</svg>
