<?xml version="1.0" encoding="iso-8859-1"?>
<!-- Generator: Adobe Illustrator 15.1.0, SVG Export Plug-In . SVG Version: 6.00 Build 0)  -->
<!DOCTYPE svg PUBLIC "-//W3C//DTD SVG 1.1//EN" "http://www.w3.org/Graphics/SVG/1.1/DTD/svg11.dtd">
<svg version="1.1" id="Layer_1" xmlns="http://www.w3.org/2000/svg" xmlns:xlink="http://www.w3.org/1999/xlink" x="0px" y="0px"
	 width="14.26px" height="14.16px" viewBox="0 0 14.26 14.16" style="enable-background:new 0 0 14.26 14.16;" xml:space="preserve"
	>
<path style="fill:#959595;" d="M14.013,12.441l-3.912-3.904c0.035-0.055,0.064-0.139,0.088-0.256
	c0.416-0.697,0.666-1.447,0.748-2.25c0.019-0.188,0.025-0.375,0.025-0.562c0-0.609-0.104-1.213-0.309-1.811
	C10.388,2.883,9.956,2.197,9.362,1.6C8.83,1.078,8.228,0.681,7.556,0.409C6.884,0.137,6.191,0,5.476,0
	C4.76,0,4.069,0.136,3.403,0.409c-0.666,0.272-1.264,0.67-1.796,1.192c-0.7,0.704-1.173,1.527-1.419,2.472
	C0.06,4.548-0.003,5.02,0,5.489c0.003,0.469,0.066,0.938,0.188,1.407c0.246,0.938,0.72,1.762,1.421,2.473
	c0.532,0.521,1.131,0.918,1.797,1.191c0.667,0.272,1.356,0.407,2.069,0.407c1.103,0,2.111-0.301,3.026-0.903
	c0.018-0.013,0.041-0.025,0.07-0.045c0.029-0.019,0.053-0.033,0.07-0.043l3.93,3.92c0.152,0.151,0.305,0.235,0.457,0.254
	c0.035,0.008,0.062,0.01,0.088,0.01c0.105-0.006,0.199-0.031,0.281-0.078c0.104-0.061,0.22-0.148,0.343-0.271l0.176-0.176
	c0.123-0.123,0.214-0.236,0.272-0.342c0.047-0.082,0.068-0.188,0.068-0.314c0-0.022,0-0.047,0-0.069
	C14.246,12.755,14.164,12.6,14.013,12.441z M9.84,6.644C9.634,7.417,9.242,8.093,8.661,8.673C8.237,9.098,7.752,9.421,7.204,9.65
	C6.656,9.878,6.08,9.994,5.476,9.994c-0.592,0-1.164-0.115-1.715-0.344C3.208,9.421,2.716,9.098,2.282,8.675
	C1.86,8.253,1.536,7.768,1.31,7.22S0.971,6.097,0.971,5.493S1.084,4.312,1.31,3.762c0.226-0.551,0.55-1.037,0.972-1.459
	C2.71,1.875,3.2,1.547,3.751,1.318C4.303,1.09,4.877,0.976,5.476,0.976c1.255,0,2.316,0.442,3.185,1.327
	C9.242,2.877,9.635,3.551,9.84,4.324c0.101,0.387,0.151,0.773,0.154,1.16C9.997,5.871,9.946,6.257,9.84,6.644z"/>
</svg>
