<?xml version="1.0" encoding="iso-8859-1"?>
<!-- Generator: Adobe Illustrator 15.1.0, SVG Export Plug-In . SVG Version: 6.00 Build 0)  -->
<!DOCTYPE svg PUBLIC "-//W3C//DTD SVG 1.1//EN" "http://www.w3.org/Graphics/SVG/1.1/DTD/svg11.dtd">
<svg version="1.1" id="Layer_1" xmlns="http://www.w3.org/2000/svg" xmlns:xlink="http://www.w3.org/1999/xlink" x="0px" y="0px"
	 width="21.246px" height="21.234px" viewBox="0 0 21.246 21.234" style="enable-background:new 0 0 21.246 21.234;"
	 xml:space="preserve">
<g>
	<path style="fill:#FFFFFF;" d="M10.628,6.985c-1.008,0-1.863,0.354-2.566,1.061s-1.055,1.562-1.055,2.562
		c0.001,1.006,0.352,1.86,1.055,2.563s1.559,1.057,2.566,1.057c1,0,1.854-0.354,2.565-1.057s1.065-1.559,1.065-2.564
		c0-0.992-0.354-1.844-1.065-2.557C12.482,7.34,11.628,6.985,10.628,6.985z M12.369,12.369c-0.488,0.488-1.068,0.732-1.74,0.732
		c-0.688,0-1.275-0.244-1.764-0.732c-0.488-0.488-0.732-1.076-0.732-1.764c0-0.671,0.244-1.251,0.732-1.74
		c0.488-0.488,1.076-0.732,1.764-0.732c0.672,0,1.252,0.244,1.74,0.732s0.732,1.068,0.732,1.74
		C13.102,11.293,12.857,11.881,12.369,12.369z"/>
	<path style="fill:#FFFFFF;" d="M20.967,8.08c-0.183-0.222-0.404-0.35-0.662-0.381l-0.656-0.094l-0.809-0.07
		c-0.023-0.062-0.061-0.154-0.111-0.275c-0.051-0.119-0.088-0.213-0.109-0.273l0.525-0.621l0.389-0.527
		c0.141-0.193,0.211-0.414,0.211-0.654c0-0.031-0.006-0.062-0.014-0.096c-0.016-0.279-0.121-0.512-0.314-0.689L16.85,1.83
		c-0.181-0.195-0.41-0.305-0.69-0.328c-0.039,0-0.074,0-0.104,0c-0.242,0-0.457,0.066-0.646,0.199l-0.527,0.387L14.26,2.615
		l-0.562-0.211l-0.07-0.82l-0.094-0.645c-0.031-0.258-0.156-0.479-0.375-0.662C12.939,0.094,12.699,0,12.434,0H8.812
		C8.547,0,8.303,0.092,8.08,0.275C7.857,0.458,7.73,0.68,7.699,0.938L7.605,1.582l-0.07,0.82C7.473,2.426,7.381,2.461,7.26,2.508
		C7.139,2.555,7.047,2.59,6.984,2.613L6.363,2.086L5.836,1.699C5.656,1.566,5.449,1.5,5.215,1.5c-0.031,0-0.066,0-0.105,0
		C4.828,1.523,4.59,1.633,4.395,1.828L1.828,4.395c-0.18,0.18-0.281,0.41-0.305,0.689c-0.008,0.047-0.012,0.09-0.012,0.129
		c0,0.229,0.062,0.436,0.188,0.621l0.387,0.527l0.551,0.621C2.559,7.133,2.48,7.316,2.402,7.535l-0.82,0.07L0.938,7.699
		C0.688,7.73,0.469,7.857,0.281,8.08C0.093,8.302,0,8.547,0,8.812v3.621c0,0.266,0.094,0.506,0.281,0.721
		c0.188,0.215,0.406,0.342,0.656,0.381l0.645,0.094l0.82,0.07c0.094,0.25,0.172,0.438,0.234,0.562l-0.551,0.621L1.699,15.41
		c-0.125,0.172-0.188,0.371-0.188,0.598c0,0.039,0.004,0.082,0.012,0.131c0.023,0.279,0.125,0.52,0.305,0.715l2.566,2.564
		c0.195,0.188,0.434,0.293,0.715,0.316c0.031,0,0.066,0,0.105,0c0.234,0,0.441-0.066,0.621-0.199l0.527-0.387l0.621-0.551
		c0.211,0.107,0.395,0.189,0.551,0.244l0.07,0.811l0.094,0.656c0.031,0.25,0.158,0.467,0.381,0.648
		c0.223,0.185,0.467,0.275,0.732,0.275h3.621c0.268,0,0.508-0.092,0.729-0.275c0.219-0.183,0.344-0.398,0.375-0.648l0.094-0.656
		l0.07-0.811c0.188-0.068,0.375-0.15,0.562-0.244l0.62,0.551l0.527,0.387c0.188,0.125,0.397,0.188,0.633,0.188
		c0.039,0,0.078,0,0.117,0c0.28-0.023,0.512-0.125,0.69-0.307l2.565-2.564c0.194-0.195,0.301-0.436,0.315-0.715
		c0.008-0.031,0.013-0.062,0.013-0.096c0-0.242-0.07-0.453-0.211-0.633l-0.388-0.527l-0.526-0.619
		c0.022-0.062,0.062-0.156,0.11-0.281c0.051-0.125,0.088-0.219,0.11-0.281l0.81-0.07l0.656-0.094
		c0.258-0.031,0.479-0.156,0.661-0.375c0.185-0.219,0.275-0.461,0.275-0.727V8.812C21.242,8.547,21.15,8.302,20.967,8.08z
		 M20.086,12.411l-0.598,0.094l-0.293,0.023l-1.219,0.094c-0.047,0.25-0.117,0.479-0.211,0.68c-0.01,0.031-0.074,0.192-0.199,0.48
		c-0.031,0.07-0.133,0.277-0.305,0.621l0.762,0.938l0.188,0.211l0.363,0.506l-2.52,2.52l-0.48-0.363l-0.234-0.188l-0.938-0.797
		c-0.234,0.146-0.441,0.262-0.621,0.34c-0.055,0.021-0.141,0.059-0.258,0.104s-0.191,0.078-0.225,0.096
		c-0.141,0.047-0.365,0.115-0.68,0.211l-0.096,1.193l-0.021,0.316l-0.094,0.598H8.836l-0.094-0.598l-0.035-0.316l-0.094-1.193
		c-0.234-0.07-0.457-0.143-0.668-0.211c-0.055-0.023-0.135-0.059-0.24-0.102s-0.186-0.076-0.24-0.1
		c-0.18-0.078-0.387-0.191-0.621-0.34l-0.938,0.797l-0.223,0.188L5.18,18.574l-2.52-2.52l0.363-0.506l0.188-0.211L4.008,14.4
		c-0.148-0.234-0.262-0.441-0.34-0.621c-0.023-0.054-0.055-0.135-0.094-0.24c-0.039-0.104-0.07-0.186-0.094-0.24
		c-0.047-0.141-0.117-0.365-0.211-0.68l-1.207-0.094l-0.305-0.023L1.148,12.41V8.836l0.61-0.104l0.305-0.023L3.27,8.613
		c0.07-0.234,0.14-0.457,0.21-0.668C3.496,7.898,3.525,7.82,3.568,7.711c0.043-0.107,0.076-0.189,0.1-0.246
		c0.078-0.18,0.191-0.387,0.34-0.621L3.211,5.906L3.023,5.66L2.66,5.18L5.18,2.66l0.504,0.363l0.223,0.188l0.938,0.773
		c0.023-0.018,0.111-0.062,0.264-0.143C7.262,3.764,7.38,3.706,7.466,3.667C7.7,3.565,7.861,3.503,7.946,3.479
		c0.21-0.092,0.433-0.163,0.667-0.209l0.094-1.23l0.035-0.281L8.836,1.15h3.574l0.094,0.607l0.023,0.281l0.094,1.23
		c0.25,0.047,0.477,0.116,0.68,0.211c0.164,0.047,0.324,0.107,0.48,0.188c0.086,0.039,0.205,0.1,0.357,0.176
		c0.15,0.078,0.238,0.125,0.264,0.143l0.938-0.773l0.234-0.188l0.48-0.363l2.52,2.521l-0.363,0.479l-0.188,0.246l-0.762,0.938
		c0.172,0.344,0.271,0.551,0.305,0.619c0.094,0.195,0.16,0.355,0.199,0.48c0.094,0.211,0.164,0.434,0.211,0.668l1.219,0.094
		l0.293,0.023l0.598,0.104V12.411z"/>
</g>
</svg>
