<?xml version="1.0" encoding="iso-8859-1"?>
<!-- Generator: Adobe Illustrator 15.1.0, SVG Export Plug-In . SVG Version: 6.00 Build 0)  -->
<!DOCTYPE svg PUBLIC "-//W3C//DTD SVG 1.1//EN" "http://www.w3.org/Graphics/SVG/1.1/DTD/svg11.dtd">
<svg version="1.1" id="Layer_1" xmlns="http://www.w3.org/2000/svg" xmlns:xlink="http://www.w3.org/1999/xlink" x="0px" y="0px"
	 width="19.418px" height="18.016px" viewBox="0 0 19.418 18.016" style="enable-background:new 0 0 19.418 18.016;"
	 xml:space="preserve">
<path style="fill:#D7B593;" d="M12.581,10.436c1.854,0,3.372-0.623,4.515-1.85c2.646-2.839,2.316-7.901,2.301-8.115
	C19.378,0.206,19.157,0,18.891,0c-0.002,0-0.004,0-0.008,0c-3.66,0.055-6.324,1.096-7.92,3.094C8.916,5.658,9.352,8.899,9.466,9.551
	c-0.134,0.347-0.25,0.719-0.349,1.103c-0.166-0.489-0.351-0.853-0.512-1.11c0.003-0.024,0.008-0.049,0.007-0.074
	c-0.001-0.054-0.266-5.424-5.76-5.424c-0.754,0-1.582,0.104-2.46,0.31C0.13,4.416-0.039,4.672,0.008,4.937
	c0.042,0.24,1.086,5.896,5.278,5.896c0.001,0,0.001,0,0.001,0c0.79,0,1.641-0.214,2.534-0.633c0.229,0.405,0.519,1.159,0.661,2.33
	c-2.829,0.155-5.452,1.571-7.087,3.886c-0.219,0.31-0.248,0.716-0.073,1.053c0.175,0.337,0.522,0.548,0.901,0.548h13.541
	c0.379,0,0.728-0.211,0.9-0.548s0.146-0.743-0.073-1.053c-1.581-2.237-4.086-3.639-6.809-3.868c0.112-0.763,0.28-1.639,0.538-2.387
	C11.119,10.34,11.88,10.436,12.581,10.436z M10.375,7.812c0.037-1.168,0.318-2.759,1.387-4.092c1.327-1.656,3.559-2.561,6.637-2.688
	c0.014,1.284-0.142,4.819-2.045,6.864c-1.287,1.383-3.18,1.824-5.615,1.319c-0.102-0.021-0.2-0.041-0.305-0.065
	C10.396,8.861,10.357,8.387,10.375,7.812z M7.15,9.388C6.484,9.672,5.859,9.817,5.287,9.817c-2.72,0-3.841-3.317-4.169-4.579
	C1.734,5.119,2.316,5.06,2.852,5.06c2.94,0,4.061,1.814,4.486,3.127c0.133,0.408,0.199,0.771,0.231,1.009
	C7.427,9.267,7.288,9.33,7.15,9.388z M15.764,17H2.223c1.508-2.131,3.992-3.486,6.77-3.486S14.255,14.869,15.764,17z"/>
</svg>
