<?xml version="1.0" encoding="iso-8859-1"?>
<!-- Generator: Adobe Illustrator 15.1.0, SVG Export Plug-In . SVG Version: 6.00 Build 0)  -->
<!DOCTYPE svg PUBLIC "-//W3C//DTD SVG 1.1//EN" "http://www.w3.org/Graphics/SVG/1.1/DTD/svg11.dtd">
<svg version="1.1" id="Layer_1" xmlns="http://www.w3.org/2000/svg" xmlns:xlink="http://www.w3.org/1999/xlink" x="0px" y="0px"
	 width="18.854px" height="14.285px" viewBox="0 0 18.854 14.285" style="enable-background:new 0 0 18.854 14.285;"
	 xml:space="preserve">
<path style="fill:#83C779;" d="M18.768,7.157c-0.095-0.143-0.256-0.229-0.428-0.229h-1.334V1.454c0-0.283-0.23-0.513-0.513-0.513
	c-0.284,0-0.514,0.23-0.514,0.513v5.475h-1.354V2.31c0-0.284-0.229-0.513-0.514-0.513c-0.282,0-0.513,0.229-0.513,0.513v4.618
	h-1.354V3.935c0-0.284-0.23-0.514-0.514-0.514s-0.513,0.23-0.513,0.514v2.993H9.865V0.513C9.865,0.23,9.635,0,9.352,0
	C9.068,0,8.838,0.23,8.837,0.513v6.415H7.483V2.652c0-0.283-0.229-0.513-0.513-0.513c-0.283,0-0.513,0.23-0.513,0.513v4.277H5.103
	v-3.25c0-0.283-0.229-0.513-0.513-0.513c-0.284,0-0.513,0.23-0.513,0.513v3.25H2.722v-5.73c0-0.283-0.229-0.513-0.513-0.513
	c-0.283,0-0.514,0.23-0.514,0.513v5.73H0.514c-0.173,0-0.333,0.086-0.428,0.229c-0.095,0.143-0.112,0.324-0.045,0.483l2.673,6.33
	c0.08,0.188,0.266,0.313,0.473,0.313h12.48c0.206,0,0.392-0.123,0.473-0.313l2.673-6.33C18.88,7.483,18.864,7.301,18.768,7.157z
	 M15.327,13.257h-11.8L1.288,7.955H16.21c0.081,0.053,0.178,0.086,0.283,0.086c0.104,0,0.201-0.031,0.282-0.086h0.791L15.327,13.257
	z"/>
</svg>
