<?xml version="1.0" encoding="iso-8859-1"?>
<!-- Generator: Adobe Illustrator 15.1.0, SVG Export Plug-In . SVG Version: 6.00 Build 0)  -->
<!DOCTYPE svg PUBLIC "-//W3C//DTD SVG 1.1//EN" "http://www.w3.org/Graphics/SVG/1.1/DTD/svg11.dtd">
<svg version="1.1" id="Layer_1" xmlns="http://www.w3.org/2000/svg" xmlns:xlink="http://www.w3.org/1999/xlink" x="0px" y="0px"
	 width="9.77px" height="17.912px" viewBox="0 0 9.77 17.912" style="enable-background:new 0 0 9.77 17.912;" xml:space="preserve"
	>
<path style="fill:#83C779;" d="M9.298,9.629c-2.178-0.042-3.729,1.705-4.631,3.132V9.724c2.256-0.261,3.978-3.042,3.978-6.552
	c0-0.992-0.142-1.945-0.416-2.834C8.17,0.152,8.005,0.019,7.81,0.002c-0.195-0.017-0.38,0.087-0.47,0.261l-1.43,2.812L4.798,0.387
	C4.724,0.208,4.549,0.091,4.355,0.091H4.289c-0.193,0-0.369,0.116-0.442,0.296L2.733,3.075l-1.43-2.812
	c-0.09-0.174-0.274-0.278-0.47-0.261C0.639,0.019,0.474,0.151,0.416,0.338C0.14,1.227,0,2.18,0,3.172
	c0,3.369,1.585,6.063,3.707,6.506v7.755c0,0.266,0.215,0.48,0.48,0.48c0.265,0,0.479-0.215,0.479-0.48v-0.438
	c5.101-1.012,5.104-6.831,5.103-6.891C9.767,9.844,9.558,9.633,9.298,9.629z M4.322,8.789C2.5,8.789,0.96,6.216,0.96,3.172
	c0-0.439,0.03-0.868,0.09-1.286L2.35,4.44c0.085,0.168,0.259,0.271,0.445,0.263C2.983,4.695,3.149,4.58,3.221,4.407l1.101-2.659
	l1.1,2.659C5.494,4.58,5.66,4.695,5.847,4.703c0.187,0.008,0.36-0.095,0.445-0.263l1.3-2.554c0.061,0.418,0.091,0.847,0.091,1.286
	C7.683,6.216,6.144,8.789,4.322,8.789z M4.667,16.013v-1.187c0.223-0.532,1.696-3.833,4.117-4.204
	C8.671,11.912,8.047,15.226,4.667,16.013z"/>
</svg>
