<?xml version="1.0" encoding="iso-8859-1"?>
<!-- Generator: Adobe Illustrator 15.1.0, SVG Export Plug-In . SVG Version: 6.00 Build 0)  -->
<!DOCTYPE svg PUBLIC "-//W3C//DTD SVG 1.1//EN" "http://www.w3.org/Graphics/SVG/1.1/DTD/svg11.dtd">
<svg version="1.1" id="Layer_1" xmlns="http://www.w3.org/2000/svg" xmlns:xlink="http://www.w3.org/1999/xlink" x="0px" y="0px"
	 width="12.014px" height="21.42px" viewBox="0 0 12.014 21.42" style="enable-background:new 0 0 12.014 21.42;"
	 xml:space="preserve">
<g>
	<path style="fill:#ADADAD;" d="M7.753,0C7.748,0,7.744,0,7.739,0C7.457,0.005,7.204,0.176,7.093,0.437
		C6.309,2.286,4.489,6.732,4.514,8.095c0.034,1.826,1.549,3.312,3.377,3.312c0.021,0,0.043,0,0.065,0
		c0.746-0.014,1.445-0.265,2.026-0.726c0.834-0.662,1.304-1.651,1.283-2.715C11.241,6.607,9.254,2.23,8.401,0.412
		C8.283,0.16,8.03,0,7.753,0L7.753,0z"/>
	<path style="fill:#ADADAD;" d="M9.262,12.487c-0.003,0-0.007,0-0.011,0c-0.223,0.005-0.419,0.139-0.506,0.343
		c-0.614,1.448-2.039,4.931-2.021,5.997c0.027,1.43,1.213,2.594,2.646,2.594c0.017,0,0.032,0,0.051,0
		c0.584-0.011,1.134-0.208,1.589-0.568c0.653-0.518,1.02-1.293,1.004-2.125c-0.021-1.063-1.577-4.492-2.244-5.916
		C9.677,12.612,9.479,12.487,9.262,12.487L9.262,12.487z"/>
	<path style="fill:#ADADAD;" d="M1.958,9.54c-0.002,0-0.005,0-0.008,0C1.779,9.543,1.626,9.647,1.559,9.804
		C1.085,10.922-0.015,13.61,0,14.435c0.021,1.104,0.937,2.002,2.042,2.002c0.013,0,0.024,0,0.04,0
		c0.451-0.01,0.875-0.162,1.226-0.438C3.812,15.601,4.095,15,4.083,14.356C4.067,13.534,2.866,10.889,2.35,9.79
		C2.279,9.637,2.125,9.54,1.958,9.54L1.958,9.54z"/>
</g>
</svg>
